{"title":"Wire in the Blood S05","uid":11514205,"size":2577522699,"categoryP":"video","categoryS":"tv_shows","magnet":"?xt=urn:btih:38d47cb2dd8d3066e15af09f5b328301b2081067&amp;dn=Wire+in+the+Blood+S05&amp;tr=udp%3A%2F%2Ftracker.openbittorrent.com%3A80&amp;tr=udp%3A%2F%2Fopen.demonii.com%3A1337&amp;tr=udp%3A%2F%2Ftracker.coppersurfer.tk%3A6969&amp;tr=udp%3A%2F%2Fexodus.desync.com%3A6969","seeders":15,"leechers":6,"uploader":"RedBaron58","files":4,"time":1416431719,"description":"Wire in the Blood S05 - Crime Drama x264 mp4\n  &lt;a href=&quot;\nhttp://www.imdb.com/title/tt0337792/&quot; rel=&quot;nofollow&quot; target=&quot;_NEW&quot;&gt;\nhttp://www.imdb.com/title/tt0337792/&lt;/a&gt;\n\nTrailer:\n\n\nThank you for your kind comments and thumbs ups on my other torrents, your feedback is welcome.\n\n\nAbout the Series:\nSet in the fictional English city of Bradfield, clinical psychologist Dr. Tony Hill is recruited as a \ncriminal profiler for the police department. Aiding D.I. Alex Fielding, the doctor's eccentric methods \nand deep understanding of the criminal mind help track down vicious serial killers and solve the most \ngruesome of crimes.\n\nStarring Robson Green\n\n\nI hope you enjoy.\n\n\nTechnical: (All episodes are encoded to the same settings)\n\nGeneral\nComplete name                            : H:Wire in the Blood S05Wire In The Blood S05E01 The Colour of Amber x264 RB58.mp4\nFormat                                   : MPEG-4\nFormat profile                           : Base Media / Version 2\nCodec ID                                 : mp42\nFile size                                : 611 MiB\nDuration                                 : 1h 25mn\nOverall bit rate mode                    : Variable\nOverall bit rate                         : 1 000 Kbps\nEncoded date                             : UTC 2014-08-24 17:37:33\nTagged date                              : UTC 2014-08-24 17:58:42\nWriting application                      : HandBrake 0.9.8 2012071700\n\nVideo\nID                                       : 1\nFormat                                   : AVC\nFormat/Info                              : Advanced Video Codec\nFormat profile                           : &lt;a class=&quot;__cf_email__&quot; href=&quot;/cdn-cgi/l/email-protection&quot; data-cfemail=&quot;276a464e49676b140917&quot;&gt;[email&amp;#160;protected]&lt;/a&gt;&lt;script cf-hash='f9e31' type=&quot;text/javascript&quot;&gt;\n/* &lt;![CDATA[ */!function(){try{var t=&quot;currentScript&quot;in document?document.currentScript:function(){for(var t=document.getElementsByTagName(&quot;script&quot;),e=t.length;e--;)if(t[e].getAttribute(&quot;cf-hash&quot;))return t[e]}();if(t&amp;&amp;t.previousSibling){var e,r,n,i,c=t.previousSibling,a=c.getAttribute(&quot;data-cfemail&quot;);if(a){for(e=&quot;&quot;,r=parseInt(a.substr(0,2),16),n=2;a.length-n;n+=2)i=parseInt(a.substr(n,2),16)^r,e+=String.fromCharCode(i);e=document.createTextNode(e),c.parentNode.replaceChild(e,c)}}}catch(u){}}();/* ]]&gt; */&lt;/script&gt;\nFormat settings, CABAC                   : Yes\nFormat settings, ReFrames                : 4 frames\nCodec ID                                 : avc1\nCodec ID/Info                            : Advanced Video Coding\nDuration                                 : 1h 25mn\nBit rate mode                            : Variable\nBit rate                                 : 900 Kbps\nWidth                                    : 720 pixels\nHeight                                   : 576 pixels\nDisplay aspect ratio                     : 16:9\nFrame rate mode                          : Variable\nFrame rate                               : 25.000 fps\nMinimum frame rate                       : 25.000 fps\nMaximum frame rate                       : 58.824 fps\nStandard                                 : PAL\nColor space                              : YUV\nChroma subsampling                       : 4:2:0\nBit depth                                : 8 bits\nScan type                                : Progressive\nBits/(Pixel*Frame)                       : 0.087\nStream size                              : 550 MiB (90%)\nWriting library                          : x264 core 120\nEncoding settings                        : cabac=1 / ref=1 / deblock=1:0:0\nEncoded date                             : UTC 2014-08-24 17:37:33\nTagged date                              : UTC 2014-08-24 17:58:42\nColor primaries                          : BT.601 NTSC\nTransfer characteristics                 : BT.709\nMatrix coefficients                      : BT.601\n\nAudio\nID                                       : 2\nFormat                                   : AAC\nFormat/Info                              : Advanced Audio Codec\nFormat profile                           : LC\nCodec ID                                 : 40\nDuration                                 : 1h 25mn\nBit rate mode                            : Variable\nBit rate                                 : 96.0 Kbps\nMaximum bit rate                         : 130 Kbps\nChannel(s)                               : 2 channels\nChannel positions                        : Front: L R\nSampling rate                            : 48.0 KHz\nCompression mode                         : Lossy\nDelay relative to video                  : 80ms\nStream size                              : 58.6 MiB (10%)\nEncoded date                             : UTC 2014-08-24 17:37:33\nTagged date                              : UTC 2014-08-24 17:58:41","torrent":{"xt":"urn:btih:38d47cb2dd8d3066e15af09f5b328301b2081067","amp;dn":"Wire+in+the+Blood+S05","amp;tr":["udp%3A%2F%2Ftracker.openbittorrent.com%3A80","udp%3A%2F%2Fopen.demonii.com%3A1337","udp%3A%2F%2Ftracker.coppersurfer.tk%3A6969","udp%3A%2F%2Fexodus.desync.com%3A6969"],"infoHash":"38d47cb2dd8d3066e15af09f5b328301b2081067","infoHashBuffer":{"type":"Buffer","data":[56,212,124,178,221,141,48,102,225,90,240,159,91,50,131,1,178,8,16,103]},"announce":[],"urlList":[]}}